<?xml version="1.0" encoding="UTF-8" standalone="no"?>
<!-- Generator: Adobe Illustrator 18.1.1, SVG Export Plug-In . SVG Version: 6.00 Build 0)  -->

<svg
   xmlns:dc="http://purl.org/dc/elements/1.1/"
   xmlns:cc="http://creativecommons.org/ns#"
   xmlns:rdf="http://www.w3.org/1999/02/22-rdf-syntax-ns#"
   xmlns:svg="http://www.w3.org/2000/svg"
   xmlns="http://www.w3.org/2000/svg"
   xmlns:sodipodi="http://sodipodi.sourceforge.net/DTD/sodipodi-0.dtd"
   xmlns:inkscape="http://www.inkscape.org/namespaces/inkscape"
   version="1.1"
   id="Capa_1"
   x="0px"
   y="0px"
   viewBox="0 0 143.51015 83.805008"
   xml:space="preserve"
   sodipodi:docname="bus-front-green-exp.svg"
   inkscape:version="0.92.4 (5da689c313, 2019-01-14)"
   width="143.51015"
   height="83.805008"><metadata
   id="metadata955"><rdf:RDF><cc:Work
       rdf:about=""><dc:format>image/svg+xml</dc:format><dc:type
         rdf:resource="http://purl.org/dc/dcmitype/StillImage" /><dc:title></dc:title></cc:Work></rdf:RDF></metadata><defs
   id="defs953" /><sodipodi:namedview
   pagecolor="#ffffff"
   bordercolor="#666666"
   borderopacity="1"
   objecttolerance="10"
   gridtolerance="10"
   guidetolerance="10"
   inkscape:pageopacity="0"
   inkscape:pageshadow="2"
   inkscape:window-width="1920"
   inkscape:window-height="1017"
   id="namedview951"
   showgrid="false"
   inkscape:zoom="6.5984391"
   inkscape:cx="88.919702"
   inkscape:cy="50.700227"
   inkscape:window-x="1912"
   inkscape:window-y="-8"
   inkscape:window-maximized="1"
   inkscape:current-layer="Capa_1"
   fit-margin-top="0"
   fit-margin-left="0"
   fit-margin-right="0"
   fit-margin-bottom="0" />
<path
   style="fill:#b4da86;fill-opacity:1;stroke:none;stroke-width:1.85540271px;stroke-linecap:butt;stroke-linejoin:miter;stroke-opacity:1"
   d="m 110.99568,82.057969 h 29.37798 l 1.27881,-55.332161 -0.83368,-2.560718 -1.11155,-1.422624 -26.12176,-0.284522 -2.50102,1.991669 -1.11157,3.414291 z"
   id="path6384"
   inkscape:connector-curvature="0" /><g
   id="g918"
   style="fill:#b4da86;fill-opacity:1"
   transform="matrix(1.8336477,0,0,1.8336477,-3.5316055,6.5023923e-4)">
	<path
   d="M 41.403,11.11 C 41.032,7.483 40.441,4.659 39.506,3.549 35.651,-1.015 8.647,-1.349 5.581,3.549 4.831,4.749 4.305,7.563 3.952,11.116 2.813,11.25 1.926,12.209 1.926,13.383 v 4.443 c 0,0.988 0.626,1.821 1.5,2.146 -0.207,6.998 -0.039,14.299 0.271,17.93 0,2.803 1.883,2.338 1.883,2.338 h 1.765 v 3.026 c 0,1.2 1.237,2.171 2.761,2.171 1.526,0 2.763,-0.971 2.763,-2.171 V 40.24 h 20.534 v 3.026 c 0,1.2 1.236,2.171 2.762,2.171 1.524,0 2.761,-0.971 2.761,-2.171 V 40.24 h 0.58 c 0,0 2.216,0.304 2.358,-1.016 0,-3.621 0.228,-11.646 0.04,-19.221 0.929,-0.291 1.607,-1.147 1.607,-2.177 V 13.383 C 43.512,12.181 42.582,11.206 41.403,11.11 Z M 12.176,4.2 H 32.911 V 7.337 H 12.176 Z m 0.296,32.467 c -1.628,0 -2.947,-1.32 -2.947,-2.948 0,-1.627 1.319,-2.946 2.947,-2.946 1.628,0 2.948,1.319 2.948,2.946 0,1.628 -1.319,2.948 -2.948,2.948 z m 20.328,0 c -1.627,0 -2.949,-1.32 -2.949,-2.948 0,-1.627 1.321,-2.946 2.949,-2.946 1.628,0 2.947,1.319 2.947,2.946 10e-4,1.628 -1.319,2.948 -2.947,2.948 z m 3.747,-12.9 H 8.54 V 9.077 h 28.007 z"
   id="path886"
   style="fill:#b4da86;fill-opacity:1"
   inkscape:connector-curvature="0" />
	<g
   id="g888"
   style="fill:#b4da86;fill-opacity:1">
	</g>
	<g
   id="g890"
   style="fill:#b4da86;fill-opacity:1">
	</g>
	<g
   id="g892"
   style="fill:#b4da86;fill-opacity:1">
	</g>
	<g
   id="g894"
   style="fill:#b4da86;fill-opacity:1">
	</g>
	<g
   id="g896"
   style="fill:#b4da86;fill-opacity:1">
	</g>
	<g
   id="g898"
   style="fill:#b4da86;fill-opacity:1">
	</g>
	<g
   id="g900"
   style="fill:#b4da86;fill-opacity:1">
	</g>
	<g
   id="g902"
   style="fill:#b4da86;fill-opacity:1">
	</g>
	<g
   id="g904"
   style="fill:#b4da86;fill-opacity:1">
	</g>
	<g
   id="g906"
   style="fill:#b4da86;fill-opacity:1">
	</g>
	<g
   id="g908"
   style="fill:#b4da86;fill-opacity:1">
	</g>
	<g
   id="g910"
   style="fill:#b4da86;fill-opacity:1">
	</g>
	<g
   id="g912"
   style="fill:#b4da86;fill-opacity:1">
	</g>
	<g
   id="g914"
   style="fill:#b4da86;fill-opacity:1">
	</g>
	<g
   id="g916"
   style="fill:#b4da86;fill-opacity:1">
	</g>
</g>
<g
   id="g920"
   transform="translate(33.437703,38.101376)">
</g>
<g
   id="g922"
   transform="translate(33.437703,38.101376)">
</g>
<g
   id="g924"
   transform="translate(33.437703,38.101376)">
</g>
<g
   id="g926"
   transform="translate(33.437703,38.101376)">
</g>
<g
   id="g928"
   transform="translate(33.437703,38.101376)">
</g>
<g
   id="g930"
   transform="translate(33.437703,38.101376)">
</g>
<g
   id="g932"
   transform="translate(33.437703,38.101376)">
</g>
<g
   id="g934"
   transform="translate(33.437703,38.101376)">
</g>
<g
   id="g936"
   transform="translate(33.437703,38.101376)">
</g>
<g
   id="g938"
   transform="translate(33.437703,38.101376)">
</g>
<g
   id="g940"
   transform="translate(33.437703,38.101376)">
</g>
<g
   id="g942"
   transform="translate(33.437703,38.101376)">
</g>
<g
   id="g944"
   transform="translate(33.437703,38.101376)">
</g>
<g
   id="g946"
   transform="translate(33.437703,38.101376)">
</g>
<g
   id="g948"
   transform="translate(33.437703,38.101376)">
</g>
<circle
   id="path3858"
   cx="19.346815"
   cy="61.862423"
   style="fill:#465837;fill-opacity:1;stroke:#ffffff;stroke-width:0.44374272;stroke-miterlimit:4;stroke-dasharray:none;stroke-opacity:1"
   r="5.5009432" /><circle
   id="path3858-9"
   cx="56.597004"
   cy="61.862423"
   style="fill:#465837;fill-opacity:1;stroke:#ffffff;stroke-width:0.44374272;stroke-miterlimit:4;stroke-dasharray:none;stroke-opacity:1"
   r="5.5009432" /><g
   id="g5060"
   transform="matrix(-0.19235361,0,0,-0.19235361,140.37366,80.668514)"
   style="fill:#b4da86;fill-opacity:1;stroke:#ffffff;stroke-width:4.61172152;stroke-miterlimit:4;stroke-dasharray:none;stroke-opacity:1"><path
     d="m 0,0 h 152.729 v 182.618 c 0,0.499 0.052,0.986 0.152,1.455 v 7.972 c -0.1,0.467 -0.152,0.951 -0.152,1.447 v 84.932 c -0.003,4.582 -1.517,8.23 -4.764,11.475 -3.119,3.137 -6.585,4.648 -10.918,4.767 H 16.246 C 11.661,294.664 8.014,293.15 4.77,289.903 1.517,286.654 0.003,283.007 0,278.42 Z M 159.729,-14 H -7 c -3.866,0 -7,3.134 -7,7 v 285.424 c 0.005,8.314 2.989,15.506 8.871,21.38 5.868,5.875 13.061,8.858 21.372,8.862 h 120.894 c 0.055,0 0.11,-10e-4 0.166,-0.002 7.981,-0.189 14.904,-3.176 20.574,-8.878 5.862,-5.858 8.847,-13.05 8.852,-21.357 v -83.464 c 0.1,-0.477 0.152,-0.971 0.152,-1.477 V 182.61 c 0,-0.49 -0.052,-0.975 -0.152,-1.448 V -7 c 0,-3.866 -3.133,-7 -7,-7"
     style="fill:#b4da86;fill-opacity:1;fill-rule:nonzero;stroke:#ffffff;stroke-width:4.61172152;stroke-miterlimit:4;stroke-dasharray:none;stroke-opacity:1"
     id="path5062"
     inkscape:connector-curvature="0" /></g><g
   id="g5064"
   transform="matrix(-0.19235361,0,0,-0.19235361,92.892738,45.994502)"
   style="fill:#b4da86;fill-opacity:1;stroke:none;stroke-opacity:1"><path
     d="m 0,0 c -3.866,0 -7,3.134 -7,7 v 32.836 c 0,3.866 3.134,7 7,7 3.866,0 7,-3.134 7,-7 V 7 C 7,3.134 3.866,0 0,0"
     style="fill:#b4da86;fill-opacity:1;fill-rule:nonzero;stroke:none;stroke-opacity:1"
     id="path5066"
     inkscape:connector-curvature="0" /></g><g
   id="g5068"
   transform="matrix(-0.19235361,0,0,-0.19235361,98.306622,45.994502)"
   style="fill:#b4da86;fill-opacity:1;stroke:none;stroke-opacity:1"><path
     d="m 0,0 c -3.866,0 -7,3.134 -7,7 v 32.836 c 0,3.866 3.134,7 7,7 3.866,0 7,-3.134 7,-7 V 7 C 7,3.134 3.866,0 0,0"
     style="fill:#b4da86;fill-opacity:1;fill-rule:nonzero;stroke:none;stroke-opacity:1"
     id="path5070"
     inkscape:connector-curvature="0" /></g><g
   id="g5076"
   transform="matrix(-0.19235361,0,0,-0.19235361,98.306622,76.673034)"
   style="fill:#b4da86;fill-opacity:1;stroke:none;stroke-opacity:1"><path
     d="m 0,0 h -9.382 c -11.62,0 -21.073,9.453 -21.073,21.072 v 28.146 c 0,3.899 -3.173,7.072 -7.072,7.072 h -18.764 c -3.866,0 -7,3.134 -7,7 0,3.866 3.134,7 7,7 h 18.764 c 11.619,0 21.072,-9.453 21.072,-21.072 V 21.072 c 0,-3.899 3.173,-7.072 7.073,-7.072 H 0 c 3.899,0 7.072,3.173 7.072,7.072 v 98.509 c 0,3.866 3.134,7 7,7 3.866,0 7,-3.134 7,-7 V 21.072 C 21.072,9.453 11.619,0 0,0"
     style="fill:#b4da86;fill-opacity:1;fill-rule:nonzero;stroke:none;stroke-opacity:1"
     id="path5078"
     inkscape:connector-curvature="0" /></g><g
   id="g5072"
   transform="matrix(-0.19235361,0,0,-0.19235361,99.667177,45.994502)"
   style="fill:#b4da86;fill-opacity:1;stroke:none;stroke-opacity:1"><path
     d="M 0,0 V -2.382 C 0.024,-3.2 1.351,-5.348 2.627,-6.635 3.928,-7.946 4.691,-9.752 4.691,-11.599 v -14.238 c 0,-3.899 3.173,-7.072 7.073,-7.072 h 18.763 c 3.9,0 7.073,3.173 7.073,7.072 v 14.238 c 0,1.878 0.754,3.678 2.094,4.995 1.246,1.256 2.573,3.404 2.597,4.225 V 0 Z M 30.527,-46.909 H 11.764 c -11.619,0 -21.073,9.453 -21.073,21.072 v 11.611 C -11.345,-11.632 -14,-7.304 -14,-2.382 V 7 c 0,3.866 3.134,7 7,7 h 56.291 c 3.866,0 7,-3.134 7,-7 v -9.382 c 0,-4.922 -2.655,-9.25 -4.691,-11.844 v -11.611 c 0,-11.619 -9.454,-21.072 -21.073,-21.072"
     style="fill:#b4da86;fill-opacity:1;fill-rule:nonzero;stroke:none;stroke-opacity:1"
     id="path5074"
     inkscape:connector-curvature="0" /></g><path
   style="fill:#465837;stroke:none;stroke-width:1px;stroke-linecap:butt;stroke-linejoin:miter;stroke-opacity:1;fill-opacity:1"
   d="m 127.53016,36.445322 -9.27752,11.1381 1.32109,1.440633 2.57637,-0.151551 c 0,0 1.97016,-0.07578 1.97016,0.227326 0,0.303102 -0.75775,3.788775 -0.9093,4.698081 -0.15155,0.909306 -1.15011,3.402999 -1.15011,3.402999 l 8.12145,-6.661345 3.25835,-5.22851 -2.72792,-1.591285 -3.40989,0.151551 0.22732,-3.258347 1.59129,-3.106795 z"
   id="path6386"
   inkscape:connector-curvature="0" /><g
   id="g5056"
   transform="matrix(0.19235361,0,0,-0.19235361,132.59856,45.591023)"
   style="fill:#ffffff;fill-opacity:1;stroke:#ffffff;stroke-opacity:1;stroke-width:0.99816167;stroke-miterlimit:4;stroke-dasharray:none"><path
     d="m 0,0 h 0.008 z m -71.538,-9.677 h -0.013 0.025 z m -3.053,-0.681 h 0.01 z m 31.338,0.681 c 2.2,0 4.272,-1.034 5.594,-2.792 1.322,-1.758 1.742,-4.035 1.132,-6.148 L -45.074,-48.234 -6.446,0 h -21.827 c -2.201,0 -4.272,1.034 -5.594,2.792 -1.322,1.758 -1.742,4.036 -1.132,6.149 L -26.43,38.63 -65.08,-9.677 Z m -11.53,-50.68 -0.015,-0.018 z m 2.438,-12.877 c -1.758,0 -3.487,0.432 -5.093,1.284 -2.209,1.141 -3.938,3.003 -4.936,5.349 -0.998,2.317 -1.163,4.85 -0.465,7.299 l 10.28,35.625 h -18.959 -0.054 c -2.739,0 -5.289,0.99 -7.346,2.865 -2.104,1.968 -3.299,4.443 -3.519,7.217 -0.195,2.85 0.637,5.463 2.401,7.635 l 52.313,65.382 c 1.625,1.992 3.75,3.315 6.188,3.877 0.062,0.014 0.124,0.027 0.186,0.04 2.469,0.5 4.953,0.142 7.193,-1.031 2.256,-1.147 3.978,-2.974 4.986,-5.29 1.016,-2.403 1.177,-4.927 0.493,-7.367 L -18.967,14 H -0.006 0.017 C 2.779,14 5.333,13.011 7.39,11.139 7.432,11.101 7.473,11.063 7.513,11.023 9.518,9.108 10.678,6.64 10.871,3.879 11.086,1.113 10.281,-1.501 8.54,-3.684 l -52.389,-65.417 c -1.545,-1.948 -3.668,-3.295 -6.119,-3.869 -0.068,-0.016 -0.136,-0.031 -0.206,-0.045 -0.723,-0.146 -1.449,-0.219 -2.171,-0.219"
     style="fill:#ffffff;fill-opacity:1;fill-rule:nonzero;stroke:#ffffff;stroke-opacity:1;stroke-width:0.99816167;stroke-miterlimit:4;stroke-dasharray:none"
     id="path5058"
     inkscape:connector-curvature="0" /></g></svg>