<?xml version="1.0" encoding="UTF-8" standalone="no"?>
<!-- Generator: Adobe Illustrator 18.1.1, SVG Export Plug-In . SVG Version: 6.00 Build 0)  -->

<svg
   xmlns:dc="http://purl.org/dc/elements/1.1/"
   xmlns:cc="http://creativecommons.org/ns#"
   xmlns:rdf="http://www.w3.org/1999/02/22-rdf-syntax-ns#"
   xmlns:svg="http://www.w3.org/2000/svg"
   xmlns="http://www.w3.org/2000/svg"
   xmlns:sodipodi="http://sodipodi.sourceforge.net/DTD/sodipodi-0.dtd"
   xmlns:inkscape="http://www.inkscape.org/namespaces/inkscape"
   version="1.1"
   id="Capa_1"
   x="0px"
   y="0px"
   viewBox="0 0 45.437 45.437"
   style="enable-background:new 0 0 45.437 45.437;"
   xml:space="preserve"
   sodipodi:docname="bus-front-green.svg"
   inkscape:version="0.92.4 (5da689c313, 2019-01-14)"><metadata
   id="metadata955"><rdf:RDF><cc:Work
       rdf:about=""><dc:format>image/svg+xml</dc:format><dc:type
         rdf:resource="http://purl.org/dc/dcmitype/StillImage" /><dc:title></dc:title></cc:Work></rdf:RDF></metadata><defs
   id="defs953" /><sodipodi:namedview
   pagecolor="#ffffff"
   bordercolor="#666666"
   borderopacity="1"
   objecttolerance="10"
   gridtolerance="10"
   guidetolerance="10"
   inkscape:pageopacity="0"
   inkscape:pageshadow="2"
   inkscape:window-width="1920"
   inkscape:window-height="1017"
   id="namedview951"
   showgrid="false"
   inkscape:zoom="18.663204"
   inkscape:cx="22.7185"
   inkscape:cy="22.7185"
   inkscape:window-x="1912"
   inkscape:window-y="-8"
   inkscape:window-maximized="1"
   inkscape:current-layer="Capa_1" />
<g
   id="g918"
   style="fill:#b4da86;fill-opacity:1">
	<path
   d="M41.403,11.11c-0.371-3.627-0.962-6.451-1.897-7.561c-3.855-4.564-30.859-4.898-33.925,0   c-0.75,1.2-1.276,4.014-1.629,7.567c-1.139,0.134-2.026,1.093-2.026,2.267v4.443c0,0.988,0.626,1.821,1.5,2.146   c-0.207,6.998-0.039,14.299,0.271,17.93c0,2.803,1.883,2.338,1.883,2.338h1.765v3.026c0,1.2,1.237,2.171,2.761,2.171   c1.526,0,2.763-0.971,2.763-2.171V40.24h20.534v3.026c0,1.2,1.236,2.171,2.762,2.171c1.524,0,2.761-0.971,2.761-2.171V40.24h0.58   c0,0,2.216,0.304,2.358-1.016c0-3.621,0.228-11.646,0.04-19.221c0.929-0.291,1.607-1.147,1.607-2.177v-4.443   C43.512,12.181,42.582,11.206,41.403,11.11z M12.176,4.2h20.735v3.137H12.176V4.2z M12.472,36.667c-1.628,0-2.947-1.32-2.947-2.948   c0-1.627,1.319-2.946,2.947-2.946s2.948,1.319,2.948,2.946C15.42,35.347,14.101,36.667,12.472,36.667z M32.8,36.667   c-1.627,0-2.949-1.32-2.949-2.948c0-1.627,1.321-2.946,2.949-2.946s2.947,1.319,2.947,2.946   C35.748,35.347,34.428,36.667,32.8,36.667z M36.547,23.767H8.54V9.077h28.007V23.767z"
   id="path886"
   style="fill:#b4da86;fill-opacity:1" />
	<g
   id="g888"
   style="fill:#b4da86;fill-opacity:1">
	</g>
	<g
   id="g890"
   style="fill:#b4da86;fill-opacity:1">
	</g>
	<g
   id="g892"
   style="fill:#b4da86;fill-opacity:1">
	</g>
	<g
   id="g894"
   style="fill:#b4da86;fill-opacity:1">
	</g>
	<g
   id="g896"
   style="fill:#b4da86;fill-opacity:1">
	</g>
	<g
   id="g898"
   style="fill:#b4da86;fill-opacity:1">
	</g>
	<g
   id="g900"
   style="fill:#b4da86;fill-opacity:1">
	</g>
	<g
   id="g902"
   style="fill:#b4da86;fill-opacity:1">
	</g>
	<g
   id="g904"
   style="fill:#b4da86;fill-opacity:1">
	</g>
	<g
   id="g906"
   style="fill:#b4da86;fill-opacity:1">
	</g>
	<g
   id="g908"
   style="fill:#b4da86;fill-opacity:1">
	</g>
	<g
   id="g910"
   style="fill:#b4da86;fill-opacity:1">
	</g>
	<g
   id="g912"
   style="fill:#b4da86;fill-opacity:1">
	</g>
	<g
   id="g914"
   style="fill:#b4da86;fill-opacity:1">
	</g>
	<g
   id="g916"
   style="fill:#b4da86;fill-opacity:1">
	</g>
</g>
<g
   id="g920">
</g>
<g
   id="g922">
</g>
<g
   id="g924">
</g>
<g
   id="g926">
</g>
<g
   id="g928">
</g>
<g
   id="g930">
</g>
<g
   id="g932">
</g>
<g
   id="g934">
</g>
<g
   id="g936">
</g>
<g
   id="g938">
</g>
<g
   id="g940">
</g>
<g
   id="g942">
</g>
<g
   id="g944">
</g>
<g
   id="g946">
</g>
<g
   id="g948">
</g>
</svg>